<svg xmlns="http://www.w3.org/2000/svg" viewBox="0 0 24 24"><path d="M16.5 3.75a1.5 1.5 0 1 1-3 0 1.5 1.5 0 0 1 3 0zm1.5 0a3 3 0 1 0-6 0 3 3 0 0 0 6 0zm-10.5 15a3 3 0 1 1-6 0 3 3 0 0 1 6 0zm1.5 0a4.5 4.5 0 1 0-9 0 4.5 4.5 0 0 0 9 0zm13.5 0a3 3 0 1 1-6 0 3 3 0 0 1 6 0zm1.5 0a4.5 4.5 0 1 0-9 0 4.5 4.5 0 0 0 9 0zm-12 .75a.75.75 0 0 1-.75-.75 6.734 6.734 0 0 0-3.642-5.994.75.75 0 0 1-.167-1.207l4.043-3.842a.75.75 0 0 1 1.187.208c.062.116.143.252.263.429.197.289.429.577.697.848.8.809 1.758 1.308 2.869 1.308a.75.75 0 0 1 0 1.5 5.564 5.564 0 0 1-4.137-1.966.75.75 0 0 0-1.089-.058l-1.452 1.38a.75.75 0 0 0 .031 1.116 8.22 8.22 0 0 1 2.897 6.277.75.75 0 0 1-.75.751zm0 1.5a2.25 2.25 0 0 0 2.25-2.25 9.72 9.72 0 0 0-3.425-7.421l.03 1.114 1.453-1.38-1.089-.059a7.07 7.07 0 0 0 5.268 2.496A2.25 2.25 0 1 0 16.5 9c-.656 0-1.26-.315-1.803-.863a4.554 4.554 0 0 1-.695-.914 2.25 2.25 0 0 0-3.552-.604l-4.043 3.842a2.25 2.25 0 0 0 .51 3.626 5.236 5.236 0 0 1 2.833 4.662A2.25 2.25 0 0 0 12 21z"></path></svg>